<svg fill="none" height="15" viewBox="0 0 18 15" width="18" xmlns="http://www.w3.org/2000/svg"><path d="m11.3.166728c1.7-.5 3.1.2 3.7 1.100002.7-.2 1.4-.500002 2.1-.700002 0 .800002-.5 1.500002-.9 1.700002.7.2 1.3-.5 1.3-.5-.2 1-1 1.7-1.6 2-.2 6.59997-3.3 10.99997-10.4 10.79997-.5 0 .1 0-.5 0-.4 0-4.3-.4-5-1.8 2.3.2 4-.4 4.8-1.1-1-.3-2.8-.5-3.1-2.89997.4.1.6.2 1.3.1-1.2-.8-2.6-1.5-2.5-3.7.3.3 1.1.5 1.4.5-.7-.2-2-3.3-.9-4.800002 1.9 1.800002 3.8 3.500002 7.4 3.700002.1-2.3 1.1-3.800002 2.9-4.400002z" fill="#fff"/></svg>
